M48
METRIC,LZ,000.000
;FILE_FORMAT=3:3
;TYPE=PLATED
;Layer: PTH_Through
;EasyEDA v6.5.23, 2023-08-12 17:48:43
;10
;Gerber Generator version 0.2
;Holesize 1 = 0.915 mm
T01C0.915
;Holesize 2 = 1.000 mm
T02C1.000
;Holesize 3 = 1.021 mm
T03C1.021
%
G05
G90
T01
X027305Y048387
X027305Y045847
X027305Y043307
X027305Y061087
X027305Y058547
X027305Y056007
X027305Y073787
X027305Y071247
X027305Y068707
X027305Y086487
X027305Y083947
X027305Y081407
X027305Y099187
X027305Y096647
X027305Y094107
X027305Y111887
X027305Y109347
X027305Y106807
X027305Y124587
X027305Y122047
X027305Y119507
X027305Y137287
X027305Y134747
X027305Y132207
X063500Y045720
X060960Y045720
X058420Y045720
X055880Y045720
X053340Y045720
X050800Y045720
X012065Y135890
X012065Y133350
X012065Y123190
X012065Y120650
X012065Y110490
X012065Y107950
X012065Y097790
X012065Y095250
X012065Y085090
X012065Y082550
X012065Y072390
X012065Y069850
X012065Y059690
X012065Y057150
X012065Y046990
X012065Y044450
X033655Y134620
X041655Y134620
X033655Y121920
X041655Y121920
X033655Y109220
X041655Y109220
X033655Y096520
X041655Y096520
X033655Y083820
X041655Y083820
X033655Y071120
X041655Y071120
X033655Y058420
X041655Y058420
X033655Y045720
X041655Y045720
X097790Y063754
X097790Y061214
X097790Y058674
X097790Y056134
X097790Y053594
X097790Y051054
X097790Y048514
X095885Y069532
X093218Y069532
X090805Y069532
X088138Y069532
X100330Y076200
X100330Y078740
X100330Y081280
X100330Y083820
X100330Y086360
X100330Y088900
T02
X048600Y089000
X048600Y091540
X048600Y094080
X048600Y096620
X048600Y099160
X048600Y101700
X048600Y104240
X048600Y106780
X048600Y109320
X048600Y111860
X048600Y137260
X048600Y134720
X048600Y132180
X048600Y129640
X048600Y127100
X048600Y124560
X048600Y122020
X048600Y119480
X048600Y116940
X048600Y114400
X066380Y114400
X066380Y116940
X066380Y119480
X066380Y122020
X066380Y124560
X066380Y127100
X066380Y129640
X066380Y132180
X066380Y134720
X066380Y137260
X066380Y111860
X066380Y109320
X066380Y106780
X066380Y104240
X066380Y101700
X066380Y099160
X066380Y096620
X066380Y094080
X066380Y091540
X066380Y089000
X019685Y139700G85X019685Y139700
X019685Y129540G85X019685Y129540
X019685Y127000G85X019685Y127000
X019685Y116840G85X019685Y116840
X019685Y114300G85X019685Y114300
X019685Y104140G85X019685Y104140
X019685Y101600G85X019685Y101600
X019685Y091440G85X019685Y091440
X019685Y088900G85X019685Y088900
X019685Y078740G85X019685Y078740
X019685Y076200G85X019685Y076200
X019685Y066040G85X019685Y066040
X019685Y063500G85X019685Y063500
X019685Y053340G85X019685Y053340
X019685Y050800G85X019685Y050800
X019685Y040640G85X019685Y040640
X099568Y132872
X099568Y130332
X099568Y127792
X099568Y125252
T03
X086360Y056451
X086360Y053911
X086360Y051371
X086360Y048831
X086360Y046291
M30
