G04 Layer: BottomLayer*
G04 EasyEDA v6.5.23, 2023-08-12 17:48:43*
G04 Gerber Generator version 0.2*
G04 Scale: 100 percent, Rotated: No, Reflected: No *
G04 Dimensions in millimeters *
G04 leading zeros omitted , absolute positions ,4 integer and 5 decimal *
%FSLAX45Y45*%
%MOMM*%

%ADD10C,1.2700*%
%ADD11C,1.6000*%
%ADD12R,1.6000X1.6000*%
%ADD13C,1.7780*%
%ADD14C,1.5240*%
%ADD15C,1.9812*%
%ADD16C,1.5748*%
%ADD17R,1.5748X1.5748*%
%ADD18R,0.0100X1.5748*%

%LPD*%
D10*
X6350000Y4572000D02*
G01*
X8120354Y6342354D01*
X8710879Y6342354D01*
X9321774Y6953250D01*
X4165498Y13461974D02*
G01*
X4429480Y13725956D01*
X4860010Y13725956D01*
X4165498Y10921974D02*
G01*
X3990517Y11096955D01*
X3990517Y12250648D01*
X4703825Y12963956D01*
X4860010Y12963956D01*
X4165498Y9651974D02*
G01*
X4320590Y9807067D01*
X4320590Y12170537D01*
X4860010Y12709956D01*
X4165498Y8381974D02*
G01*
X4608322Y8824798D01*
X4608322Y11442268D01*
X4860010Y11693956D01*
X10032974Y8381974D02*
G01*
X7990966Y10423982D01*
X6637985Y10423982D01*
X10032974Y8127974D02*
G01*
X7990966Y10169982D01*
X6637985Y10169982D01*
X9778974Y5105400D02*
G01*
X10494695Y5821121D01*
X10494695Y7666253D01*
X10032974Y8127974D01*
X9778974Y5359400D02*
G01*
X10342118Y5922543D01*
X10342118Y7564831D01*
X10032974Y7873974D01*
X10032974Y7873974D02*
G01*
X7990966Y9915982D01*
X6637985Y9915982D01*
X9976764Y7563764D02*
G01*
X7878546Y9661982D01*
X6637985Y9661982D01*
X10032974Y7619974D02*
G01*
X9976764Y7563764D01*
X9976764Y7563764D02*
G01*
X9976764Y5811189D01*
X9778974Y5613400D01*
X3365500Y4572000D02*
G01*
X2743200Y4572000D01*
X2730500Y4584700D01*
X1968500Y4888331D02*
G01*
X1968500Y5080000D01*
X1206500Y4699000D02*
G01*
X1395831Y4888331D01*
X1968500Y4888331D01*
X1968500Y4888331D02*
G01*
X2172868Y4888331D01*
X2730500Y4330700D01*
X3365500Y5842000D02*
G01*
X2743200Y5842000D01*
X2730500Y5854700D01*
X1968500Y6158331D02*
G01*
X1968500Y6350000D01*
X1206500Y5969000D02*
G01*
X1395831Y6158331D01*
X1968500Y6158331D01*
X1968500Y6158331D02*
G01*
X2172868Y6158331D01*
X2730500Y5600700D01*
X3365500Y7111974D02*
G01*
X2743200Y7111974D01*
X2730500Y7124674D01*
X1968500Y7428306D02*
G01*
X1968500Y7619974D01*
X1206500Y7238974D02*
G01*
X1395831Y7428306D01*
X1968500Y7428306D01*
X1968500Y7428306D02*
G01*
X2172868Y7428306D01*
X2730500Y6870674D01*
X3365500Y8381974D02*
G01*
X2743200Y8381974D01*
X2730500Y8394674D01*
X1968500Y8698306D02*
G01*
X1968500Y8889974D01*
X1206500Y8508974D02*
G01*
X1395831Y8698306D01*
X1968500Y8698306D01*
X1968500Y8698306D02*
G01*
X2172868Y8698306D01*
X2730500Y8140674D01*
X3365500Y9651974D02*
G01*
X2743200Y9651974D01*
X2730500Y9664674D01*
X1968500Y9968306D02*
G01*
X1968500Y10159974D01*
X1206500Y9778974D02*
G01*
X1395831Y9968306D01*
X1968500Y9968306D01*
X1968500Y9968306D02*
G01*
X2172868Y9968306D01*
X2730500Y9410674D01*
X3365500Y10921974D02*
G01*
X2743200Y10921974D01*
X2730500Y10934674D01*
X1968500Y11238306D02*
G01*
X1968500Y11429974D01*
X1206500Y11048974D02*
G01*
X1395831Y11238306D01*
X1968500Y11238306D01*
X1968500Y11238306D02*
G01*
X2172868Y11238306D01*
X2730500Y10680674D01*
X3365500Y12191974D02*
G01*
X2743200Y12191974D01*
X2730500Y12204674D01*
X1968500Y12508306D02*
G01*
X1968500Y12699974D01*
X1206500Y12318974D02*
G01*
X1395831Y12508306D01*
X1968500Y12508306D01*
X1968500Y12508306D02*
G01*
X2172868Y12508306D01*
X2730500Y11950674D01*
X3365500Y13461974D02*
G01*
X2743200Y13461974D01*
X2730500Y13474674D01*
X1968500Y13969974D02*
G01*
X1968500Y13633475D01*
X1206500Y13588974D02*
G01*
X1251000Y13633475D01*
X1968500Y13633475D01*
X1968500Y13633475D02*
G01*
X2317699Y13633475D01*
X2730500Y13220674D01*
X1968500Y5334000D02*
G01*
X1587500Y5334000D01*
X1206500Y5715000D01*
X1968500Y6603974D02*
G01*
X1587500Y6603974D01*
X1206500Y6984974D01*
X1968500Y7873974D02*
G01*
X1587500Y7873974D01*
X1206500Y8254974D01*
X1968500Y9143974D02*
G01*
X1587500Y9143974D01*
X1206500Y9524974D01*
X1968500Y10413974D02*
G01*
X1587500Y10413974D01*
X1206500Y10794974D01*
X1968500Y11683974D02*
G01*
X1587500Y11683974D01*
X1206500Y12064974D01*
X1968500Y12953974D02*
G01*
X1587500Y12953974D01*
X1206500Y13334974D01*
X1206500Y4445000D02*
G01*
X1587500Y4064000D01*
X1968500Y4064000D01*
X1968500Y4064000D02*
G01*
X5842000Y4064000D01*
X6350000Y4572000D01*
X6637985Y13725956D02*
G01*
X7838770Y12525171D01*
X9956774Y12525171D01*
X5334000Y4572000D02*
G01*
X5588000Y4572000D01*
X5334000Y4572000D02*
G01*
X5067300Y4838700D01*
X2730500Y4838700D01*
X6637985Y13217956D02*
G01*
X6430924Y13217956D01*
X6430924Y13889888D02*
G01*
X6430924Y13217956D01*
X2730500Y13728674D02*
G01*
X2891713Y13889888D01*
X6430924Y13889888D01*
X6430924Y13889888D02*
G01*
X7443139Y13889888D01*
X8299856Y13033171D01*
X9956774Y13033171D01*
D11*
G01*
X4860010Y8899982D03*
G01*
X4860010Y9153982D03*
D12*
G01*
X4859985Y9407982D03*
D11*
G01*
X4860010Y9661982D03*
G01*
X4860010Y9915982D03*
G01*
X4860010Y10169982D03*
G01*
X4860010Y10423982D03*
D12*
G01*
X4859985Y10677982D03*
D11*
G01*
X4860010Y10931956D03*
G01*
X4860010Y11185956D03*
G01*
X4860010Y13725956D03*
G01*
X4860010Y13471956D03*
D12*
G01*
X4859985Y13217982D03*
D11*
G01*
X4860010Y12963956D03*
G01*
X4860010Y12709956D03*
G01*
X4860010Y12455956D03*
G01*
X4860010Y12201956D03*
D12*
G01*
X4859985Y11947982D03*
D11*
G01*
X4860010Y11693956D03*
G01*
X4860010Y11439956D03*
G01*
X6637985Y11439956D03*
G01*
X6637985Y11693956D03*
D12*
G01*
X6637985Y11947982D03*
D11*
G01*
X6637985Y12201956D03*
G01*
X6637985Y12455956D03*
G01*
X6637985Y12709956D03*
G01*
X6637985Y12963956D03*
D12*
G01*
X6637985Y13217982D03*
D11*
G01*
X6637985Y13471956D03*
G01*
X6637985Y13725956D03*
G01*
X6637985Y11185956D03*
G01*
X6637985Y10931956D03*
D12*
G01*
X6637985Y10677982D03*
D11*
G01*
X6637985Y10423982D03*
G01*
X6637985Y10169982D03*
G01*
X6637985Y9915982D03*
G01*
X6637985Y9661982D03*
D12*
G01*
X6637985Y9407982D03*
D11*
G01*
X6637985Y9153982D03*
G01*
X6637985Y8899982D03*
D13*
G01*
X2730500Y4838700D03*
G01*
X2730500Y4584700D03*
G01*
X2730500Y4330700D03*
G01*
X2730500Y6108674D03*
G01*
X2730500Y5854674D03*
G01*
X2730500Y5600674D03*
G01*
X2730500Y7378674D03*
G01*
X2730500Y7124674D03*
G01*
X2730500Y6870674D03*
G01*
X2730500Y8648674D03*
G01*
X2730500Y8394674D03*
G01*
X2730500Y8140674D03*
G01*
X2730500Y9918674D03*
G01*
X2730500Y9664674D03*
G01*
X2730500Y9410674D03*
G01*
X2730500Y11188674D03*
G01*
X2730500Y10934674D03*
G01*
X2730500Y10680674D03*
G01*
X2730500Y12458674D03*
G01*
X2730500Y12204674D03*
G01*
X2730500Y11950674D03*
G01*
X2730500Y13728674D03*
G01*
X2730500Y13474674D03*
G01*
X2730500Y13220674D03*
D14*
G01*
X6350000Y4572000D03*
G01*
X6096000Y4572000D03*
G01*
X5842000Y4572000D03*
G01*
X5588000Y4572000D03*
G01*
X5334000Y4572000D03*
G01*
X5080000Y4572000D03*
G01*
X1206500Y13588974D03*
G01*
X1206500Y13334974D03*
G01*
X1206500Y12318974D03*
G01*
X1206500Y12064974D03*
G01*
X1206500Y11048974D03*
G01*
X1206500Y10794974D03*
G01*
X1206500Y9778974D03*
G01*
X1206500Y9524974D03*
G01*
X1206500Y8508974D03*
G01*
X1206500Y8254974D03*
G01*
X1206500Y7238974D03*
G01*
X1206500Y6984974D03*
G01*
X1206500Y5968974D03*
G01*
X1206500Y5714974D03*
G01*
X1206500Y4699000D03*
G01*
X1206500Y4445000D03*
D15*
G01*
X1968500Y13969974D03*
G01*
X1968500Y12953974D03*
G01*
X1968500Y12699974D03*
G01*
X1968500Y11683974D03*
G01*
X1968500Y11429974D03*
G01*
X1968500Y10413974D03*
G01*
X1968500Y10159974D03*
G01*
X1968500Y9143974D03*
G01*
X1968500Y8889974D03*
G01*
X1968500Y7873974D03*
G01*
X1968500Y7619974D03*
G01*
X1968500Y6603974D03*
G01*
X1968500Y6349974D03*
G01*
X1968500Y5333974D03*
G01*
X1968500Y5080000D03*
G01*
X1968500Y4064000D03*
D14*
G01*
X3365500Y13461974D03*
G01*
X4165498Y13461974D03*
G01*
X3365500Y12191974D03*
G01*
X4165498Y12191974D03*
G01*
X3365500Y10921974D03*
G01*
X4165498Y10921974D03*
G01*
X3365500Y9651974D03*
G01*
X4165498Y9651974D03*
G01*
X3365500Y8381974D03*
G01*
X4165498Y8381974D03*
G01*
X3365500Y7111974D03*
G01*
X4165498Y7111974D03*
G01*
X3365500Y5841974D03*
G01*
X4165498Y5841974D03*
G01*
X3365500Y4572000D03*
G01*
X4165498Y4572000D03*
G01*
X9778974Y6375400D03*
G01*
X9778974Y6121400D03*
G01*
X9778974Y5867400D03*
G01*
X9778974Y5613400D03*
G01*
X9778974Y5359400D03*
G01*
X9778974Y5105400D03*
G01*
X9778974Y4851400D03*
D16*
G01*
X8635974Y5645150D03*
G01*
X8635974Y5391150D03*
G01*
X8635974Y5137150D03*
G01*
X8635974Y4883150D03*
D17*
G01*
X8635974Y4629150D03*
D14*
G01*
X9588474Y6953250D03*
G01*
X9321774Y6953250D03*
G01*
X9080474Y6953250D03*
G01*
X8813774Y6953250D03*
G01*
X10032974Y7619974D03*
G01*
X10032974Y7873974D03*
G01*
X10032974Y8127974D03*
G01*
X10032974Y8381974D03*
G01*
X10032974Y8635974D03*
G01*
X10032974Y8889974D03*
G01*
X9956774Y13287171D03*
G01*
X9956774Y13033171D03*
G01*
X9956774Y12779171D03*
G01*
X9956774Y12525171D03*
M02*
