M48
METRIC,LZ,000.000
;FILE_FORMAT=3:3
;TYPE=PLATED
;Layer: PTH_Through
;EasyEDA v6.5.23, 2023-09-09 00:44:15
;de93c458165947d6a0ce1764d10cece9,10
;Gerber Generator version 0.2
;Holesize 1 = 0.701 mm
T01C0.701
;Holesize 2 = 0.915 mm
T02C0.915
;Holesize 3 = 1.000 mm
T03C1.000
%
G05
G90
T01
X004826Y075184
X004826Y073914
X004826Y072644
X009906Y075184
X009906Y073914
X009906Y072644
X020066Y075184
X020066Y073914
X020066Y072644
X014986Y075184
X014986Y073914
X014986Y072644
X025146Y075184
X025146Y073914
X025146Y072644
X030226Y075184
X030226Y073914
X030226Y072644
X035306Y075184
X035306Y073914
X035306Y072644
X040386Y075184
X040386Y073914
X040386Y072644
T02
X003810Y069850
X003810Y064897
X008890Y065024
X008890Y069977
X013970Y065024
X013970Y069977
X019050Y065024
X019050Y069977
X024130Y065024
X024130Y069977
X029210Y065024
X029210Y069977
X034290Y065024
X034290Y069977
X039370Y065024
X039370Y069977
X041910Y069977
X041910Y065024
X036830Y069977
X036830Y065024
X031750Y069977
X031750Y065024
X026670Y069977
X026670Y065024
X021590Y069977
X021590Y065024
X016510Y069977
X016510Y065024
X011430Y069977
X011430Y065024
X006350Y064897
X006350Y069850
X058420Y081915
X058420Y084455
X058420Y086995
X058420Y089535
X058420Y092075
X058420Y094615
X058420Y060960
X058420Y063500
X058420Y066040
X058420Y068580
X058420Y071120
X062230Y075565
X062230Y078105
X003810Y059690
X003810Y062230
X008890Y059690
X008890Y062230
X013970Y062230
X013970Y059690
X019050Y062230
X019050Y059690
X024130Y062230
X024130Y059690
X029210Y062230
X029210Y059690
X034290Y062230
X034290Y059690
X039370Y062230
X039370Y059690
T03
X051970Y079080
X049430Y079080
X046890Y079080
X044350Y079080
X041810Y079080
X039270Y079080
X036730Y079080
X034190Y079080
X031650Y079080
X029110Y079080
X003710Y079080
X006250Y079080
X008790Y079080
X011330Y079080
X013870Y079080
X016410Y079080
X018950Y079080
X021490Y079080
X024030Y079080
X026570Y079080
X026570Y096860
X024030Y096860
X021490Y096860
X018950Y096860
X016410Y096860
X013870Y096860
X011330Y096860
X008790Y096860
X006250Y096860
X003710Y096860
X029110Y096860
X031650Y096860
X034190Y096860
X036730Y096860
X039270Y096860
X041810Y096860
X044350Y096860
X046890Y096860
X049430Y096860
X051970Y096860
X045720Y074930
X045720Y072390
X045720Y069850
X045720Y067310
X045720Y064770
X045720Y062230
X045720Y059690
X045720Y057150
X053340Y057150
X053340Y059690
X053340Y062230
X053340Y064770
X053340Y067310
X053340Y069850
X053340Y072390
X053340Y074930
M30
