G04 Layer: TopLayer*
G04 EasyEDA v6.5.23, 2023-08-12 17:46:20*
G04 Gerber Generator version 0.2*
G04 Scale: 100 percent, Rotated: No, Reflected: No *
G04 Dimensions in millimeters *
G04 leading zeros omitted , absolute positions ,4 integer and 5 decimal *
%FSLAX45Y45*%
%MOMM*%

%ADD10C,0.7620*%
%ADD11C,1.6000*%
%ADD12R,1.6000X1.6000*%
%ADD13O,1.9999959999999999X0.9999979999999999*%
%ADD14R,2.0000X2.0000*%
%ADD15C,2.0000*%
%ADD16C,1.5240*%
%ADD17C,0.6100*%

%LPD*%
D10*
X4191000Y6997674D02*
G01*
X4329175Y6859498D01*
X4329175Y6452996D01*
X4099179Y6223000D01*
X3937000Y6223000D01*
X4038600Y7518374D02*
G01*
X4118330Y7518374D01*
X4211396Y7425309D01*
X4211396Y7018070D01*
X4191000Y6997674D01*
X2667000Y6502374D02*
G01*
X2527325Y6362700D01*
X2298674Y6362700D01*
X2159000Y6502374D01*
X2159000Y6502374D02*
G01*
X2029307Y6372682D01*
X1780692Y6372682D01*
X1651000Y6502374D01*
X3683000Y6502374D02*
G01*
X3822674Y6362700D01*
X4051325Y6362700D01*
X4191000Y6502374D01*
X3175000Y6502374D02*
G01*
X3314674Y6362700D01*
X3543325Y6362700D01*
X3683000Y6502374D01*
X2667000Y6502374D02*
G01*
X2806674Y6362700D01*
X3035325Y6362700D01*
X3175000Y6502374D01*
X1143000Y6502374D02*
G01*
X1282674Y6362700D01*
X1511325Y6362700D01*
X1651000Y6502374D01*
X5334000Y5714974D02*
G01*
X5174919Y5555894D01*
X4350105Y5555894D01*
X3937000Y5969000D01*
X889000Y5969000D02*
G01*
X381000Y5969000D01*
X1397000Y5969000D02*
G01*
X889000Y5969000D01*
X1905000Y5969000D02*
G01*
X1397000Y5969000D01*
X2413000Y5969000D02*
G01*
X1905000Y5969000D01*
X2921000Y5969000D02*
G01*
X2413000Y5969000D01*
X3429000Y5969000D02*
G01*
X3937000Y5969000D01*
X3429000Y5969000D02*
G01*
X2921000Y5969000D01*
X2514600Y7518374D02*
G01*
X2306523Y7726451D01*
X337642Y7726451D01*
X58140Y7446949D01*
X58140Y5954521D01*
X372516Y5640146D01*
X1940940Y5640146D01*
X2006600Y7518374D02*
G01*
X1900504Y7624470D01*
X384175Y7624470D01*
X151815Y7392111D01*
X151815Y6007735D01*
X324205Y5835345D01*
X1517345Y5835345D01*
X1498600Y7518374D02*
G01*
X1413586Y7518374D01*
X1341069Y7445857D01*
X1341069Y7219899D01*
X1400073Y7160895D01*
X1487779Y7160895D01*
X1651000Y6997674D01*
X990600Y7518374D02*
G01*
X1080592Y7518374D01*
X1161440Y7437526D01*
X1161440Y7016114D01*
X1143000Y6997674D01*
X5842000Y8445474D02*
G01*
X2881502Y8445474D01*
X5842000Y8699474D02*
G01*
X2881502Y8699474D01*
X5842000Y9207474D02*
G01*
X1357503Y9207474D01*
X879017Y9685959D01*
X3872991Y7264374D02*
G01*
X3530600Y7264374D01*
X4038600Y7264374D02*
G01*
X3872991Y7264374D01*
X3872991Y7264374D02*
G01*
X3872991Y7561300D01*
X3961409Y7649718D01*
X6129756Y7649718D01*
X6223000Y7556474D01*
X990600Y7264374D02*
G01*
X482600Y7264374D01*
X1498600Y7264374D02*
G01*
X2006600Y7264374D01*
X2514600Y7264374D02*
G01*
X2006600Y7264374D01*
X3022600Y7264374D02*
G01*
X2514600Y7264374D01*
X3530600Y7264374D02*
G01*
X3022600Y7264374D01*
X889000Y6223000D02*
G01*
X751992Y6360007D01*
X327304Y6360007D01*
X251332Y6435979D01*
X251332Y6543370D01*
X536752Y6828789D01*
X974115Y6828789D01*
X1143000Y6997674D01*
D11*
G01*
X5196992Y7907985D03*
G01*
X4942992Y7907985D03*
D12*
G01*
X4688992Y7907985D03*
D11*
G01*
X4434992Y7907985D03*
G01*
X4180992Y7907985D03*
G01*
X3926992Y7907985D03*
G01*
X3672992Y7907985D03*
D12*
G01*
X3418992Y7907985D03*
D11*
G01*
X3165017Y7907985D03*
G01*
X2911017Y7907985D03*
G01*
X371017Y7907985D03*
G01*
X625017Y7907985D03*
D12*
G01*
X878992Y7907985D03*
D11*
G01*
X1133017Y7907985D03*
G01*
X1387017Y7907985D03*
G01*
X1641017Y7907985D03*
G01*
X1895017Y7907985D03*
D12*
G01*
X2148992Y7907985D03*
D11*
G01*
X2403017Y7907985D03*
G01*
X2657017Y7907985D03*
G01*
X2657017Y9685959D03*
G01*
X2403017Y9685959D03*
D12*
G01*
X2148992Y9685985D03*
D11*
G01*
X1895017Y9685959D03*
G01*
X1641017Y9685959D03*
G01*
X1387017Y9685959D03*
G01*
X1133017Y9685959D03*
D12*
G01*
X878992Y9685985D03*
D11*
G01*
X625017Y9685959D03*
G01*
X371017Y9685959D03*
G01*
X2911017Y9685959D03*
G01*
X3165017Y9685959D03*
D12*
G01*
X3418992Y9685985D03*
D11*
G01*
X3672992Y9685959D03*
G01*
X3926992Y9685959D03*
G01*
X4180992Y9685959D03*
G01*
X4434992Y9685959D03*
D12*
G01*
X4688992Y9685985D03*
D11*
G01*
X4942992Y9685959D03*
G01*
X5196992Y9685959D03*
D13*
G01*
X482600Y7518374D03*
G01*
X482600Y7391374D03*
G01*
X482600Y7264374D03*
G01*
X990600Y7518374D03*
G01*
X990600Y7391374D03*
G01*
X990600Y7264374D03*
G01*
X2006600Y7518374D03*
G01*
X2006600Y7391374D03*
G01*
X2006600Y7264374D03*
G01*
X1498600Y7518374D03*
G01*
X1498600Y7391374D03*
G01*
X1498600Y7264374D03*
G01*
X2514600Y7518374D03*
G01*
X2514600Y7391374D03*
G01*
X2514600Y7264374D03*
G01*
X3022600Y7518374D03*
G01*
X3022600Y7391374D03*
G01*
X3022600Y7264374D03*
G01*
X3530600Y7518374D03*
G01*
X3530600Y7391374D03*
G01*
X3530600Y7264374D03*
G01*
X4038600Y7518374D03*
G01*
X4038600Y7391374D03*
G01*
X4038600Y7264374D03*
D14*
G01*
X4572000Y7492974D03*
D15*
G01*
X4572000Y7238974D03*
G01*
X4572000Y6984974D03*
G01*
X4572000Y6730974D03*
G01*
X4572000Y6476974D03*
G01*
X4572000Y6222974D03*
G01*
X4572000Y5968974D03*
G01*
X4572000Y5714974D03*
G01*
X5334000Y5714974D03*
G01*
X5334000Y5968974D03*
G01*
X5334000Y6222974D03*
G01*
X5334000Y6476974D03*
G01*
X5334000Y6730974D03*
G01*
X5334000Y6984974D03*
G01*
X5334000Y7238974D03*
G01*
X5334000Y7492974D03*
D16*
G01*
X381000Y6984974D03*
G01*
X381000Y6489674D03*
G01*
X889000Y6502374D03*
G01*
X889000Y6997674D03*
G01*
X1397000Y6502374D03*
G01*
X1397000Y6997674D03*
G01*
X1905000Y6502374D03*
G01*
X1905000Y6997674D03*
G01*
X2413000Y6502374D03*
G01*
X2413000Y6997674D03*
G01*
X2921000Y6502374D03*
G01*
X2921000Y6997674D03*
G01*
X3429000Y6502374D03*
G01*
X3429000Y6997674D03*
G01*
X3937000Y6502374D03*
G01*
X3937000Y6997674D03*
G01*
X4191000Y6997674D03*
G01*
X4191000Y6502374D03*
G01*
X3683000Y6997674D03*
G01*
X3683000Y6502374D03*
G01*
X3175000Y6997674D03*
G01*
X3175000Y6502374D03*
G01*
X2667000Y6997674D03*
G01*
X2667000Y6502374D03*
G01*
X2159000Y6997674D03*
G01*
X2159000Y6502374D03*
G01*
X1651000Y6997674D03*
G01*
X1651000Y6502374D03*
G01*
X1143000Y6997674D03*
G01*
X1143000Y6502374D03*
G01*
X635000Y6489674D03*
G01*
X635000Y6984974D03*
G01*
X5842000Y8191474D03*
G01*
X5842000Y8445474D03*
G01*
X5842000Y8699474D03*
G01*
X5842000Y8953474D03*
G01*
X5842000Y9207474D03*
G01*
X5842000Y9461474D03*
G01*
X5842000Y6095974D03*
G01*
X5842000Y6349974D03*
G01*
X5842000Y6603974D03*
G01*
X5842000Y6857974D03*
G01*
X5842000Y7111974D03*
G01*
X6223000Y7556474D03*
G01*
X6223000Y7810474D03*
G01*
X381000Y5968974D03*
G01*
X381000Y6222974D03*
G01*
X889000Y5968974D03*
G01*
X889000Y6222974D03*
G01*
X1397000Y6222974D03*
G01*
X1397000Y5968974D03*
G01*
X1905000Y6222974D03*
G01*
X1905000Y5968974D03*
G01*
X2413000Y6222974D03*
G01*
X2413000Y5968974D03*
G01*
X2921000Y6222974D03*
G01*
X2921000Y5968974D03*
G01*
X3429000Y6222974D03*
G01*
X3429000Y5968974D03*
G01*
X3937000Y6222974D03*
G01*
X3937000Y5968974D03*
D17*
G01*
X1940940Y5640146D03*
G01*
X1517345Y5835345D03*
G01*
X2881502Y8445474D03*
G01*
X2881502Y8699474D03*
M02*
