G04 Layer: BottomSolderMaskLayer*
G04 EasyEDA v6.5.23, 2023-08-12 17:46:20*
G04 Gerber Generator version 0.2*
G04 Scale: 100 percent, Rotated: No, Reflected: No *
G04 Dimensions in millimeters *
G04 leading zeros omitted , absolute positions ,4 integer and 5 decimal *
%FSLAX45Y45*%
%MOMM*%

%AMMACRO1*1,1,$1,$2,$3*1,1,$1,$4,$5*1,1,$1,0-$2,0-$3*1,1,$1,0-$4,0-$5*20,1,$1,$2,$3,$4,$5,0*20,1,$1,$4,$5,0-$2,0-$3,0*20,1,$1,0-$2,0-$3,0-$4,0-$5,0*20,1,$1,0-$4,0-$5,$2,$3,0*4,1,4,$2,$3,$4,$5,0-$2,0-$3,0-$4,0-$5,$2,$3,0*%
%ADD10C,1.7016*%
%ADD11MACRO1,0.1016X-0.8X-0.8X-0.8X0.8*%
%ADD12O,2.101596X1.1015979999999999*%
%ADD13MACRO1,0.2032X-1X1X1X1*%
%ADD14C,2.2032*%
%ADD15C,1.6256*%

%LPD*%
D10*
G01*
X5196992Y7907985D03*
G01*
X4942992Y7907985D03*
D11*
G01*
X4688992Y7907985D03*
D10*
G01*
X4434992Y7907985D03*
G01*
X4180992Y7907985D03*
G01*
X3926992Y7907985D03*
G01*
X3672992Y7907985D03*
D11*
G01*
X3418994Y7907985D03*
D10*
G01*
X3165017Y7907985D03*
G01*
X2911017Y7907985D03*
G01*
X371017Y7907985D03*
G01*
X625017Y7907985D03*
D11*
G01*
X879000Y7907985D03*
D10*
G01*
X1133017Y7907985D03*
G01*
X1387017Y7907985D03*
G01*
X1641017Y7907985D03*
G01*
X1895017Y7907985D03*
D11*
G01*
X2148997Y7907985D03*
D10*
G01*
X2403017Y7907985D03*
G01*
X2657017Y7907985D03*
G01*
X2657017Y9685959D03*
G01*
X2403017Y9685959D03*
D11*
G01*
X2148997Y9685980D03*
D10*
G01*
X1895017Y9685959D03*
G01*
X1641017Y9685959D03*
G01*
X1387017Y9685959D03*
G01*
X1133017Y9685959D03*
D11*
G01*
X879000Y9685980D03*
D10*
G01*
X625017Y9685959D03*
G01*
X371017Y9685959D03*
G01*
X2911017Y9685959D03*
G01*
X3165017Y9685959D03*
D11*
G01*
X3418994Y9685980D03*
D10*
G01*
X3672992Y9685959D03*
G01*
X3926992Y9685959D03*
G01*
X4180992Y9685959D03*
G01*
X4434992Y9685959D03*
D11*
G01*
X4688992Y9685980D03*
D10*
G01*
X4942992Y9685959D03*
G01*
X5196992Y9685959D03*
D12*
G01*
X482600Y7518374D03*
G01*
X482600Y7391374D03*
G01*
X482600Y7264374D03*
G01*
X990600Y7518374D03*
G01*
X990600Y7391374D03*
G01*
X990600Y7264374D03*
G01*
X2006600Y7518374D03*
G01*
X2006600Y7391374D03*
G01*
X2006600Y7264374D03*
G01*
X1498600Y7518374D03*
G01*
X1498600Y7391374D03*
G01*
X1498600Y7264374D03*
G01*
X2514600Y7518374D03*
G01*
X2514600Y7391374D03*
G01*
X2514600Y7264374D03*
G01*
X3022600Y7518374D03*
G01*
X3022600Y7391374D03*
G01*
X3022600Y7264374D03*
G01*
X3530600Y7518374D03*
G01*
X3530600Y7391374D03*
G01*
X3530600Y7264374D03*
G01*
X4038600Y7518374D03*
G01*
X4038600Y7391374D03*
G01*
X4038600Y7264374D03*
D13*
G01*
X4571992Y7492984D03*
D14*
G01*
X4572000Y7238974D03*
G01*
X4572000Y6984974D03*
G01*
X4572000Y6730974D03*
G01*
X4572000Y6476974D03*
G01*
X4572000Y6222974D03*
G01*
X4572000Y5968974D03*
G01*
X4572000Y5714974D03*
G01*
X5334000Y5714974D03*
G01*
X5334000Y5968974D03*
G01*
X5334000Y6222974D03*
G01*
X5334000Y6476974D03*
G01*
X5334000Y6730974D03*
G01*
X5334000Y6984974D03*
G01*
X5334000Y7238974D03*
G01*
X5334000Y7492974D03*
D15*
G01*
X381000Y6984974D03*
G01*
X381000Y6489674D03*
G01*
X889000Y6502374D03*
G01*
X889000Y6997674D03*
G01*
X1397000Y6502374D03*
G01*
X1397000Y6997674D03*
G01*
X1905000Y6502374D03*
G01*
X1905000Y6997674D03*
G01*
X2413000Y6502374D03*
G01*
X2413000Y6997674D03*
G01*
X2921000Y6502374D03*
G01*
X2921000Y6997674D03*
G01*
X3429000Y6502374D03*
G01*
X3429000Y6997674D03*
G01*
X3937000Y6502374D03*
G01*
X3937000Y6997674D03*
G01*
X4191000Y6997674D03*
G01*
X4191000Y6502374D03*
G01*
X3683000Y6997674D03*
G01*
X3683000Y6502374D03*
G01*
X3175000Y6997674D03*
G01*
X3175000Y6502374D03*
G01*
X2667000Y6997674D03*
G01*
X2667000Y6502374D03*
G01*
X2159000Y6997674D03*
G01*
X2159000Y6502374D03*
G01*
X1651000Y6997674D03*
G01*
X1651000Y6502374D03*
G01*
X1143000Y6997674D03*
G01*
X1143000Y6502374D03*
G01*
X635000Y6489674D03*
G01*
X635000Y6984974D03*
G01*
X5842000Y8191474D03*
G01*
X5842000Y8445474D03*
G01*
X5842000Y8699474D03*
G01*
X5842000Y8953474D03*
G01*
X5842000Y9207474D03*
G01*
X5842000Y9461474D03*
G01*
X5842000Y6095974D03*
G01*
X5842000Y6349974D03*
G01*
X5842000Y6603974D03*
G01*
X5842000Y6857974D03*
G01*
X5842000Y7111974D03*
G01*
X6223000Y7556474D03*
G01*
X6223000Y7810474D03*
G01*
X381000Y5968974D03*
G01*
X381000Y6222974D03*
G01*
X889000Y5968974D03*
G01*
X889000Y6222974D03*
G01*
X1397000Y6222974D03*
G01*
X1397000Y5968974D03*
G01*
X1905000Y6222974D03*
G01*
X1905000Y5968974D03*
G01*
X2413000Y6222974D03*
G01*
X2413000Y5968974D03*
G01*
X2921000Y6222974D03*
G01*
X2921000Y5968974D03*
G01*
X3429000Y6222974D03*
G01*
X3429000Y5968974D03*
G01*
X3937000Y6222974D03*
G01*
X3937000Y5968974D03*
M02*
